<svg data-v-fde0c5aa="" xmlns="http://www.w3.org/2000/svg" viewBox="0 0 300 300" class="font"><!----><defs data-v-fde0c5aa=""><!----></defs><rect data-v-fde0c5aa="" fill="#D2FAFF" x="0" y="0" width="300px" height="300px" class="logo-background-square"></rect><defs data-v-fde0c5aa=""><!----></defs><g data-v-fde0c5aa="" id="9b6af180-e51d-4e23-a1b9-b2b6878bd1e4" fill="#004C56" transform="matrix(3.0186609260565294,0,0,3.0186609260565294,37.91712378829183,119.63227125660049)"><path d="M5.63 8.79L5.63 10.02L7.78 10.02C7.70 11.58 6.66 12.60 5.24 12.60C3.51 12.60 2.35 11.12 2.35 8.72C2.35 6.44 3.51 4.90 5.31 4.90C6.78 4.90 7.57 5.73 7.83 7.03L7.85 7.17L9.39 7.17L9.38 7.03C9.18 5.12 7.87 3.72 5.33 3.72C2.62 3.72 0.69 5.75 0.69 8.79C0.69 11.73 2.31 13.78 5.07 13.78C6.15 13.78 6.96 13.47 7.50 12.88L7.94 11.94L7.99 13.58L9.28 13.58L9.28 8.79ZM17.47 9.67C17.47 7.57 16.31 5.95 14.15 5.95C12.01 5.95 10.51 7.53 10.51 9.88C10.51 12.52 12.01 13.78 14 13.78C15.62 13.78 17.04 12.94 17.36 11.17L15.81 11.17C15.65 12.11 14.95 12.66 14.06 12.66C13.05 12.66 12.24 12.07 12.11 10.29L17.44 10.29C17.47 10.02 17.47 9.81 17.47 9.67ZM14.10 7.07C15.18 7.07 15.78 7.84 15.89 9.21L12.12 9.21C12.29 7.78 13.05 7.07 14.10 7.07ZM20.78 7.28L22.23 7.28L22.23 6.20L20.78 6.20L20.78 4.42L19.25 4.42L19.25 6.20L18.20 6.20L18.20 7.28L19.25 7.28L19.25 11.31C19.25 11.73 19.25 12.05 19.26 12.31C19.33 13.29 19.84 13.72 21 13.72C21.38 13.72 21.74 13.69 22.13 13.64L22.13 12.57C21.13 12.67 20.85 12.52 20.79 11.79C20.78 11.59 20.78 11.42 20.78 11.17ZM36.93 7.77C36.76 6.75 35.98 5.95 34.61 5.95C33.95 5.95 33.43 6.08 33.03 6.38L32.34 7.36C32.06 6.54 31.32 5.95 30.14 5.95C29.47 5.95 28.95 6.08 28.56 6.38L28.06 7.25L28.06 6.15L26.52 6.15L26.52 13.58L28.06 13.58L28.06 9.84C28.06 7.83 28.64 7.08 29.55 7.08C30.35 7.08 30.83 7.50 30.94 8.30C30.98 8.68 31.00 9.09 31.00 9.65L31.00 13.58L32.52 13.58L32.52 9.84C32.52 7.83 33.12 7.08 34.02 7.08C34.82 7.08 35.31 7.50 35.41 8.30C35.45 8.68 35.46 9.09 35.46 9.65L35.46 13.58L37.00 13.58L37.00 9.09C37.00 8.48 36.99 8.15 36.93 7.77ZM42.08 5.95C39.58 5.95 38.32 7.69 38.32 9.86C38.32 12.03 39.58 13.78 42.08 13.78C44.58 13.78 45.85 12.03 45.85 9.86C45.85 7.69 44.58 5.95 42.08 5.95ZM42.08 12.66C40.73 12.66 39.94 11.54 39.94 9.86C39.94 8.18 40.73 7.07 42.08 7.07C43.43 7.07 44.21 8.18 44.21 9.86C44.21 11.54 43.43 12.66 42.08 12.66ZM53.73 6.15L52.09 6.15L50.04 12.45L47.95 6.15L46.26 6.15L49.10 13.58L50.89 13.58ZM55.51 3.56C54.99 3.56 54.61 3.93 54.61 4.44C54.61 4.96 54.99 5.33 55.51 5.33C56.03 5.33 56.42 4.96 56.42 4.44C56.42 3.93 56.03 3.56 55.51 3.56ZM56.28 13.58L56.28 6.15L54.74 6.15L54.74 13.58ZM64.82 8.08C64.68 6.78 63.77 5.95 62.17 5.95C61.43 5.95 60.89 6.08 60.30 6.52L59.79 7.38L59.79 6.15L58.25 6.15L58.25 13.58L59.79 13.58L59.79 10.25C59.79 7.92 60.66 7.08 61.73 7.08C62.78 7.08 63.22 7.67 63.29 8.51C63.32 8.89 63.32 9.21 63.32 9.56L63.32 13.58L64.86 13.58L64.86 9.39C64.86 8.79 64.85 8.46 64.82 8.08ZM73.57 6.15L72.03 6.15L72.03 7.15L71.54 6.41C71.16 6.12 70.39 5.95 69.78 5.95C67.86 5.95 66.18 7.24 66.18 9.95C66.18 12.14 67.42 13.71 69.57 13.71C70.32 13.71 71.05 13.48 71.47 13.15L72.03 12.33L72.03 12.49C72.03 12.75 72.03 13.02 72.02 13.34C71.96 14.67 71.19 15.40 69.85 15.40C68.70 15.40 68.01 14.85 67.91 14.06L67.90 13.93L66.39 13.93L66.40 14.07C66.56 15.67 67.69 16.56 69.83 16.56C72.07 16.56 73.47 15.43 73.56 13.17C73.57 12.77 73.57 12.19 73.57 11.73ZM69.87 12.59C68.54 12.59 67.80 11.42 67.80 9.81C67.80 7.97 68.73 7.07 69.94 7.07C70.94 7.07 72.03 7.74 72.03 9.55L72.03 9.87C72.03 11.86 71.04 12.59 69.87 12.59Z"></path></g><!----><!----></svg>